<svg xmlns="http://www.w3.org/2000/svg" xmlns:xlink="http://www.w3.org/1999/xlink" id="body_2" preserveAspectRatio="xMinYMin meet" viewBox="0 0 816 1056"><defs><clipPath id="1"><path d="M0 792L0 0L0 0L612 0L612 0L612 792L612 792L0 792z" /></clipPath></defs><g transform="matrix(1.333333 0 0 1.333333 0 0)"><g><g clip-path="url(#1)"><path transform="matrix(1 0 0 -1 0 792)" d="M72.024 598.18L193.964 598.18L193.964 598.18L193.964 598.9L193.964 598.9L72.024 598.9z" stroke="none" fill="#954F72" fill-rule="evenodd" /><path transform="matrix(1 0 0 -1 0 792)" d="M507.58 561.22L525.7 561.22L525.7 561.22L525.7 561.9399L525.7 561.9399L507.58 561.9399z" stroke="none" fill="#954F72" fill-rule="evenodd" /><path transform="matrix(1 0 0 -1 0 792)" d="M72.024 546.7L192.884 546.7L192.884 546.7L192.884 547.42L192.884 547.42L72.024 547.42z" stroke="none" fill="#954F72" fill-rule="evenodd" /></g></g></g></svg>